<svg width="119" height="25" viewBox="0 0 119 25" fill="none" xmlns="http://www.w3.org/2000/svg">
<path d="M13.6875 14.7031H4.6875V24H0V1.25H14.8125V5.04688H4.6875V10.9219H13.6875V14.7031Z" fill="black"/>
<path d="M26.5 24C26.2917 23.5938 26.1406 23.0885 26.0469 22.4844C24.9531 23.7031 23.5312 24.3125 21.7812 24.3125C20.125 24.3125 18.75 23.8333 17.6562 22.875C16.5729 21.9167 16.0312 20.7083 16.0312 19.25C16.0312 17.4583 16.6927 16.0833 18.0156 15.125C19.349 14.1667 21.2708 13.6823 23.7812 13.6719H25.8594V12.7031C25.8594 11.9219 25.6562 11.2969 25.25 10.8281C24.8542 10.3594 24.224 10.125 23.3594 10.125C22.599 10.125 22 10.3073 21.5625 10.6719C21.1354 11.0365 20.9219 11.5365 20.9219 12.1719H16.4062C16.4062 11.1927 16.7083 10.2865 17.3125 9.45312C17.9167 8.61979 18.7708 7.96875 19.875 7.5C20.9792 7.02083 22.2188 6.78125 23.5938 6.78125C25.6771 6.78125 27.3281 7.30729 28.5469 8.35938C29.776 9.40104 30.3906 10.8698 30.3906 12.7656V20.0938C30.401 21.6979 30.625 22.9115 31.0625 23.7344V24H26.5ZM22.7656 20.8594C23.4323 20.8594 24.0469 20.7135 24.6094 20.4219C25.1719 20.1198 25.5885 19.7188 25.8594 19.2188V16.3125H24.1719C21.9115 16.3125 20.7083 17.0938 20.5625 18.6562L20.5469 18.9219C20.5469 19.4844 20.7448 19.9479 21.1406 20.3125C21.5365 20.6771 22.0781 20.8594 22.7656 20.8594Z" fill="black"/>
<path d="M43.0156 19.3281C43.0156 18.776 42.7396 18.3438 42.1875 18.0312C41.6458 17.7083 40.7708 17.4219 39.5625 17.1719C35.5417 16.3281 33.5312 14.6198 33.5312 12.0469C33.5312 10.5469 34.151 9.29688 35.3906 8.29688C36.6406 7.28646 38.2708 6.78125 40.2812 6.78125C42.4271 6.78125 44.1406 7.28646 45.4219 8.29688C46.7135 9.30729 47.3594 10.6198 47.3594 12.2344H42.8438C42.8438 11.5885 42.6354 11.0573 42.2188 10.6406C41.8021 10.2135 41.151 10 40.2656 10C39.5052 10 38.9167 10.1719 38.5 10.5156C38.0833 10.8594 37.875 11.2969 37.875 11.8281C37.875 12.3281 38.1094 12.7344 38.5781 13.0469C39.0573 13.349 39.8594 13.6146 40.9844 13.8438C42.1094 14.0625 43.0573 14.3125 43.8281 14.5938C46.2135 15.4688 47.4062 16.9844 47.4062 19.1406C47.4062 20.6823 46.7448 21.9323 45.4219 22.8906C44.099 23.8385 42.3906 24.3125 40.2969 24.3125C38.8802 24.3125 37.6198 24.0625 36.5156 23.5625C35.4219 23.0521 34.5625 22.3594 33.9375 21.4844C33.3125 20.599 33 19.6458 33 18.625H37.2812C37.3229 19.4271 37.6198 20.0417 38.1719 20.4688C38.724 20.8958 39.4635 21.1094 40.3906 21.1094C41.2552 21.1094 41.9062 20.9479 42.3438 20.625C42.7917 20.2917 43.0156 19.8594 43.0156 19.3281Z" fill="black"/>
<path d="M55.7344 2.9375V7.09375H58.625V10.4062H55.7344V18.8438C55.7344 19.4688 55.8542 19.9167 56.0938 20.1875C56.3333 20.4583 56.7917 20.5938 57.4688 20.5938C57.9688 20.5938 58.4115 20.5573 58.7969 20.4844V23.9062C57.9115 24.1771 57 24.3125 56.0625 24.3125C52.8958 24.3125 51.2812 22.7135 51.2188 19.5156V10.4062H48.75V7.09375H51.2188V2.9375H55.7344Z" fill="black"/>
<path d="M69.8594 15.6719H66.125V24H61.4375V1.25H69.8906C72.5781 1.25 74.651 1.84896 76.1094 3.04688C77.5677 4.24479 78.2969 5.9375 78.2969 8.125C78.2969 9.67708 77.9583 10.974 77.2812 12.0156C76.6146 13.0469 75.599 13.8698 74.2344 14.4844L79.1562 23.7812V24H74.125L69.8594 15.6719ZM66.125 11.875H69.9062C71.0833 11.875 71.9948 11.5781 72.6406 10.9844C73.2865 10.3802 73.6094 9.55208 73.6094 8.5C73.6094 7.42708 73.3021 6.58333 72.6875 5.96875C72.0833 5.35417 71.151 5.04688 69.8906 5.04688H66.125V11.875Z" fill="black"/>
<path d="M93.6719 18.0312C93.6719 17.1458 93.3594 16.4688 92.7344 16C92.1094 15.5208 90.9844 15.0208 89.3594 14.5C87.7344 13.9688 86.4479 13.4479 85.5 12.9375C82.9167 11.5417 81.625 9.66146 81.625 7.29688C81.625 6.06771 81.9688 4.97396 82.6562 4.01562C83.3542 3.04688 84.349 2.29167 85.6406 1.75C86.9427 1.20833 88.401 0.9375 90.0156 0.9375C91.6406 0.9375 93.0885 1.23438 94.3594 1.82812C95.6302 2.41146 96.6146 3.23958 97.3125 4.3125C98.0208 5.38542 98.375 6.60417 98.375 7.96875H93.6875C93.6875 6.92708 93.3594 6.11979 92.7031 5.54688C92.0469 4.96354 91.125 4.67188 89.9375 4.67188C88.7917 4.67188 87.901 4.91667 87.2656 5.40625C86.6302 5.88542 86.3125 6.52083 86.3125 7.3125C86.3125 8.05208 86.6823 8.67188 87.4219 9.17188C88.1719 9.67188 89.2708 10.1406 90.7188 10.5781C93.3854 11.3802 95.3281 12.375 96.5469 13.5625C97.7656 14.75 98.375 16.2292 98.375 18C98.375 19.9688 97.6302 21.5156 96.1406 22.6406C94.651 23.7552 92.6458 24.3125 90.125 24.3125C88.375 24.3125 86.7812 23.9948 85.3438 23.3594C83.9062 22.7135 82.8073 21.8333 82.0469 20.7188C81.2969 19.6042 80.9219 18.3125 80.9219 16.8438H85.625C85.625 19.3542 87.125 20.6094 90.125 20.6094C91.2396 20.6094 92.1094 20.3854 92.7344 19.9375C93.3594 19.4792 93.6719 18.8438 93.6719 18.0312Z" fill="black"/>
<path d="M113.359 18.0312C113.359 17.1458 113.047 16.4688 112.422 16C111.797 15.5208 110.672 15.0208 109.047 14.5C107.422 13.9688 106.135 13.4479 105.188 12.9375C102.604 11.5417 101.312 9.66146 101.312 7.29688C101.312 6.06771 101.656 4.97396 102.344 4.01562C103.042 3.04688 104.036 2.29167 105.328 1.75C106.63 1.20833 108.089 0.9375 109.703 0.9375C111.328 0.9375 112.776 1.23438 114.047 1.82812C115.318 2.41146 116.302 3.23958 117 4.3125C117.708 5.38542 118.062 6.60417 118.062 7.96875H113.375C113.375 6.92708 113.047 6.11979 112.391 5.54688C111.734 4.96354 110.812 4.67188 109.625 4.67188C108.479 4.67188 107.589 4.91667 106.953 5.40625C106.318 5.88542 106 6.52083 106 7.3125C106 8.05208 106.37 8.67188 107.109 9.17188C107.859 9.67188 108.958 10.1406 110.406 10.5781C113.073 11.3802 115.016 12.375 116.234 13.5625C117.453 14.75 118.062 16.2292 118.062 18C118.062 19.9688 117.318 21.5156 115.828 22.6406C114.339 23.7552 112.333 24.3125 109.812 24.3125C108.062 24.3125 106.469 23.9948 105.031 23.3594C103.594 22.7135 102.495 21.8333 101.734 20.7188C100.984 19.6042 100.609 18.3125 100.609 16.8438H105.312C105.312 19.3542 106.812 20.6094 109.812 20.6094C110.927 20.6094 111.797 20.3854 112.422 19.9375C113.047 19.4792 113.359 18.8438 113.359 18.0312Z" fill="black"/>
</svg>
